<svg width="180" height="180" viewBox="0 0 180 180" fill="none" xmlns="http://www.w3.org/2000/svg">
<path d="M0 0H180V180H0V0Z" fill="#62299B"/>
<path d="M46.9955 142.034C43.5803 142.034 40.9914 141.152 39.2287 139.39C37.466 137.737 36.5846 135.534 36.5846 132.78C36.5846 129.805 37.4109 127.051 39.0634 124.517C40.8261 121.873 43.0846 119.78 45.8388 118.238C48.593 116.695 51.4573 115.924 54.4319 115.924C55.7539 115.924 57.0759 116.089 58.3979 116.42C59.8301 116.64 61.2072 117.026 62.5292 117.576V43.213L124.334 27.3488V111.462C124.334 116.199 123.287 120.386 121.194 124.021C119.211 127.547 116.567 130.356 113.262 132.449C110.067 134.432 106.541 135.424 102.686 135.424C99.2703 135.424 96.6814 134.597 94.9187 132.945C93.156 131.182 92.2746 128.924 92.2746 126.17C92.2746 123.195 93.1009 120.441 94.7534 117.907C96.5161 115.263 98.7746 113.17 101.529 111.627C104.283 110.085 107.147 109.314 110.122 109.314C111.444 109.314 112.766 109.479 114.088 109.81C115.52 110.03 116.897 110.416 118.219 110.966V36.9334L121.029 39.2469L66.1648 54.4501L68.6436 50.4841V118.072C68.6436 122.809 67.597 126.996 65.5038 130.631C63.5207 134.157 60.8767 136.911 57.5717 138.894C54.3768 140.987 50.8514 142.034 46.9955 142.034Z" fill="#723EA6"/>
<path d="M39.2287 139.39L40.6065 138.012L40.5843 137.99L40.5614 137.968L39.2287 139.39ZM39.0634 124.517L37.4421 123.436L37.4366 123.444L37.4313 123.453L39.0634 124.517ZM45.8388 118.238L44.8867 116.537L45.8388 118.238ZM58.3979 116.42L57.9253 118.31L58.0127 118.332L58.1016 118.346L58.3979 116.42ZM62.5292 117.576L61.7798 119.375L64.4778 120.499V117.576H62.5292ZM62.5292 43.213L62.0448 41.3256L60.5807 41.7014V43.213H62.5292ZM124.334 27.3488H126.282V24.8369L123.849 25.4614L124.334 27.3488ZM121.194 124.021L119.505 123.049L119.5 123.058L119.495 123.066L121.194 124.021ZM113.262 132.449L114.289 134.105L114.297 134.1L114.304 134.095L113.262 132.449ZM94.9187 132.945L93.5408 134.323L93.563 134.345L93.586 134.367L94.9187 132.945ZM94.7534 117.907L93.1321 116.826L93.1267 116.834L93.1213 116.843L94.7534 117.907ZM101.529 111.627L102.481 113.328L102.481 113.328L101.529 111.627ZM114.088 109.81L113.615 111.7L113.703 111.722L113.792 111.736L114.088 109.81ZM118.219 110.966L117.47 112.765L120.168 113.889V110.966H118.219ZM118.219 36.9334L119.458 35.4292L116.271 32.8044V36.9334H118.219ZM121.029 39.2469L121.549 41.1247L125.159 40.1243L122.267 37.7428L121.029 39.2469ZM66.1648 54.4501L64.5124 53.4174L61.8571 57.6658L66.6851 56.3279L66.1648 54.4501ZM68.6436 50.4841H70.5921V43.6898L66.9912 49.4513L68.6436 50.4841ZM65.5038 130.631L63.8151 129.659L63.8102 129.668L63.8054 129.676L65.5038 130.631ZM57.5717 138.894L56.5691 137.223L56.5361 137.243L56.5038 137.264L57.5717 138.894ZM46.9955 140.085C43.9015 140.085 41.8855 139.291 40.6065 138.012L37.8508 140.768C40.0973 143.014 43.2591 143.982 46.9955 143.982V140.085ZM40.5614 137.968C39.2482 136.737 38.5332 135.078 38.5332 132.78H34.6361C34.6361 135.99 35.6838 138.737 37.896 140.811L40.5614 137.968ZM38.5332 132.78C38.5332 130.19 39.2458 127.805 40.6956 125.582L37.4313 123.453C35.576 126.297 34.6361 129.42 34.6361 132.78H38.5332ZM40.6847 125.598C42.2776 123.209 44.3074 121.328 46.7908 119.938L44.8867 116.537C41.8617 118.231 39.3746 120.538 37.4421 123.436L40.6847 125.598ZM46.7908 119.938C49.2726 118.548 51.8112 117.873 54.4319 117.873V113.975C51.1034 113.975 47.9133 114.842 44.8867 116.537L46.7908 119.938ZM54.4319 117.873C55.5897 117.873 56.7531 118.017 57.9253 118.31L58.8705 114.529C57.3987 114.161 55.9181 113.975 54.4319 113.975V117.873ZM58.1016 118.346C59.38 118.542 60.6048 118.886 61.7798 119.375L63.2787 115.778C61.8096 115.166 60.2802 114.738 58.6942 114.494L58.1016 118.346ZM64.4778 117.576V43.213H60.5807V117.576H64.4778ZM63.0137 45.1004L124.818 29.2362L123.849 25.4614L62.0448 41.3256L63.0137 45.1004ZM122.385 27.3488V111.462H126.282V27.3488H122.385ZM122.385 111.462C122.385 115.903 121.407 119.746 119.505 123.049L122.882 124.994C125.167 121.026 126.282 116.496 126.282 111.462H122.385ZM119.495 123.066C117.665 126.32 115.242 128.888 112.219 130.803L114.304 134.095C117.891 131.824 120.757 128.773 122.892 124.977L119.495 123.066ZM112.234 130.794C109.356 132.58 106.188 133.475 102.686 133.475V137.372C106.895 137.372 110.778 136.284 114.289 134.105L112.234 130.794ZM102.686 133.475C99.5604 133.475 97.5269 132.719 96.2514 131.523L93.586 134.367C95.8358 136.476 98.9803 137.372 102.686 137.372V133.475ZM96.2965 131.567C94.9393 130.21 94.2232 128.466 94.2232 126.17H90.3261C90.3261 129.381 91.3727 132.155 93.5408 134.323L96.2965 131.567ZM94.2232 126.17C94.2232 123.58 94.9358 121.194 96.3856 118.971L93.1213 116.843C91.266 119.687 90.3261 122.81 90.3261 126.17H94.2232ZM96.3747 118.988C97.9677 116.598 99.9974 114.718 102.481 113.328L100.577 109.927C97.5517 111.621 95.0646 113.927 93.1321 116.826L96.3747 118.988ZM102.481 113.328C104.963 111.938 107.501 111.262 110.122 111.262V107.365C106.793 107.365 103.603 108.232 100.577 109.927L102.481 113.328ZM110.122 111.262C111.28 111.262 112.443 111.407 113.615 111.7L114.561 107.919C113.089 107.551 111.608 107.365 110.122 107.365V111.262ZM113.792 111.736C115.07 111.932 116.295 112.276 117.47 112.765L118.969 109.168C117.5 108.556 115.97 108.128 114.384 107.884L113.792 111.736ZM120.168 110.966V36.9334H116.271V110.966H120.168ZM116.981 38.4376L119.79 40.7511L122.267 37.7428L119.458 35.4292L116.981 38.4376ZM120.508 37.3691L65.6444 52.5723L66.6851 56.3279L121.549 41.1247L120.508 37.3691ZM67.8172 55.4829L70.296 51.5168L66.9912 49.4513L64.5124 53.4174L67.8172 55.4829ZM66.695 50.4841V118.072H70.5921V50.4841H66.695ZM66.695 118.072C66.695 122.513 65.7169 126.356 63.8151 129.659L67.1925 131.604C69.477 127.636 70.5921 123.106 70.5921 118.072H66.695ZM63.8054 129.676C61.9798 132.922 59.5695 135.423 56.5691 137.223L58.5742 140.565C62.1839 138.399 65.0617 135.392 67.2021 131.587L63.8054 129.676ZM56.5038 137.264C53.6295 139.147 50.4759 140.085 46.9955 140.085V143.982C51.227 143.982 55.1241 142.827 58.6395 140.524L56.5038 137.264Z" fill="black"/>
</svg>
